<svg width="203" height="203" viewBox="0 0 203 203" fill="none" xmlns="http://www.w3.org/2000/svg">
<rect x="5" y="5" width="193" height="193" fill="white" stroke="black" stroke-width="10"/>
<path d="M68.4413 84.416V95.104H77.9133V96.384H68.4413V121.152C68.4413 123.157 68.8039 124.565 69.5293 125.376C70.2546 126.187 71.2573 126.592 72.5373 126.592C73.8173 126.592 74.9266 126.08 75.8653 125.056C76.8039 123.989 77.6146 122.219 78.2973 119.744L79.5773 120.064C79.1506 122.539 78.2973 124.629 77.0173 126.336C75.7799 128.043 73.8599 128.896 71.2573 128.896C69.8066 128.896 68.6119 128.704 67.6733 128.32C66.7346 127.979 65.9026 127.467 65.1773 126.784C64.2386 125.803 63.5773 124.629 63.1933 123.264C62.8519 121.899 62.6813 120.085 62.6813 117.824V96.384H56.5373V95.104H62.6813V85.312C63.7479 85.2693 64.7719 85.184 65.7533 85.056C66.7346 84.928 67.6306 84.7147 68.4413 84.416ZM88.0583 79.04C89.1676 79.04 90.1276 79.4453 90.9383 80.256C91.7489 81.0667 92.1543 82.0267 92.1543 83.136C92.1543 84.2453 91.7489 85.2053 90.9383 86.016C90.1276 86.8267 89.1676 87.232 88.0583 87.232C86.9489 87.232 85.9889 86.8267 85.1783 86.016C84.3676 85.2053 83.9623 84.2453 83.9623 83.136C83.9623 82.0267 84.3676 81.0667 85.1783 80.256C85.9889 79.4453 86.9489 79.04 88.0583 79.04ZM91.3863 94.336V122.048C91.3863 123.84 91.7489 125.056 92.4743 125.696C93.2423 126.336 94.5009 126.656 96.2503 126.656V128C95.5249 127.957 94.4156 127.915 92.9223 127.872C91.4716 127.787 89.9996 127.744 88.5063 127.744C87.0556 127.744 85.5836 127.787 84.0903 127.872C82.5969 127.915 81.4876 127.957 80.7623 128V126.656C82.5116 126.656 83.7489 126.336 84.4743 125.696C85.2423 125.056 85.6263 123.84 85.6263 122.048V102.016C85.6263 100.096 85.2849 98.688 84.6023 97.792C83.9196 96.8533 82.6396 96.384 80.7623 96.384V95.04C82.1276 95.168 83.4503 95.232 84.7303 95.232C85.9676 95.232 87.1409 95.168 88.2503 95.04C89.4023 94.8693 90.4476 94.6347 91.3863 94.336ZM109.688 77.824V122.048C109.688 123.84 110.051 125.056 110.776 125.696C111.544 126.336 112.803 126.656 114.552 126.656V128C113.827 127.957 112.718 127.915 111.224 127.872C109.774 127.787 108.302 127.744 106.808 127.744C105.358 127.744 103.886 127.787 102.392 127.872C100.899 127.915 99.7896 127.957 99.0643 128V126.656C100.814 126.656 102.051 126.336 102.776 125.696C103.544 125.056 103.928 123.84 103.928 122.048V85.504C103.928 83.584 103.587 82.176 102.904 81.28C102.222 80.3413 100.942 79.872 99.0643 79.872V78.528C100.43 78.656 101.752 78.72 103.032 78.72C104.27 78.72 105.443 78.656 106.552 78.528C107.704 78.3573 108.75 78.1227 109.688 77.824ZM132.752 94.144C136.506 94.144 139.429 95.296 141.52 97.6C143.653 99.8613 144.72 103.403 144.72 108.224H122.128L122.064 107.008H138.576C138.661 104.917 138.49 102.997 138.064 101.248C137.637 99.456 136.954 98.0267 136.016 96.96C135.12 95.8933 133.946 95.36 132.496 95.36C130.533 95.36 128.784 96.3413 127.248 98.304C125.754 100.267 124.858 103.381 124.56 107.648L124.752 107.904C124.666 108.544 124.602 109.248 124.56 110.016C124.517 110.784 124.496 111.552 124.496 112.32C124.496 115.221 124.965 117.717 125.904 119.808C126.842 121.899 128.058 123.499 129.552 124.608C131.088 125.675 132.666 126.208 134.288 126.208C135.568 126.208 136.784 126.016 137.936 125.632C139.088 125.205 140.154 124.523 141.136 123.584C142.117 122.645 142.97 121.387 143.696 119.808L144.976 120.32C144.506 121.728 143.738 123.093 142.672 124.416C141.605 125.739 140.261 126.827 138.64 127.68C137.018 128.491 135.141 128.896 133.008 128.896C129.936 128.896 127.29 128.192 125.072 126.784C122.896 125.376 121.21 123.435 120.016 120.96C118.864 118.443 118.288 115.563 118.288 112.32C118.288 108.565 118.885 105.344 120.08 102.656C121.274 99.9253 122.96 97.8347 125.136 96.384C127.312 94.8907 129.85 94.144 132.752 94.144Z" fill="black"/>
</svg>
